<?xml version='1.0' encoding='UTF-8'?>
<svg x="0px" y="0px" viewBox="0 0 32 32" version="1.1" xmlns="http://www.w3.org/2000/svg" xmlns:xlink="http://www.w3.org/1999/xlink" xml:space="preserve" id="Layer_1" style="enable-background:new 0 0 32 32">
  <style type="text/css">
	.Green{fill:#039C23;}
	.Black{fill:#727272;}
	.Red{fill:#D11C1C;}
	.Yellow{fill:#FFB115;}
	.Blue{fill:#1177D7;}
	.White{fill:#FFFFFF;}
	.st0{opacity:0.5;}
	.st1{opacity:0.75;}
</style>
  <g id="DataLabels">
    <path d="M10.3,5.2l-9.9,9.9l9.9,9.9c2.3-2.6,3.7-6.1,3.7-9.9S12.6,7.9,10.3,5.2z" class="Blue" />
    <path d="M0,30c3.4-0.2,6.5-1.6,8.9-3.7L0,17.5V30z" class="Yellow" />
    <path d="M0,0.1v12.6l8.9-8.9C6.4,1.7,3.4,0.4,0,0.1z" class="Red" />
    <g class="st0">
      <path d="M20,16h-4v-2h4V16z M20,2h-8v2h8V2z M20,26h-8v2h8V26z" class="Black" />
    </g>
    <path d="M30,6h-8V0h8V6z M30,12h-8v6h8V12z M30,24h-8v6h8V24z" class="Green" />
  </g>
</svg>